solid groundAndWall
 facet normal 0 1 0
  outer loop
   vertex 11000 0 0
   vertex 100 0 0
   vertex 100 0 300
  endloop
 endfacet
 facet normal 0 1 -0
  outer loop
   vertex 11000 0 0
   vertex 100 0 300
   vertex 11000 0 300
  endloop
 endfacet
endsolid groundAndWall
solid nozzel
 facet normal 0 1 0
  outer loop
   vertex -100 0 0
   vertex -11000 0 0
   vertex -11000 0 300
  endloop
 endfacet
 facet normal 0 1 -0
  outer loop
   vertex -100 0 0
   vertex -11000 0 300
   vertex -100 0 300
  endloop
 endfacet
endsolid nozzel
solid inlet
 facet normal 0 1 0
  outer loop
   vertex 100 0 0
   vertex -100 0 0
   vertex -100 0 300
  endloop
 endfacet
 facet normal 0 1 -0
  outer loop
   vertex 100 0 0
   vertex -100 0 300
   vertex 100 0 300
  endloop
 endfacet
endsolid inlet
