solid groundAndWall
 facet normal 0 1 0
  outer loop
   vertex 1100 0 0
   vertex 0 0 0
   vertex 0 0 300
  endloop
 endfacet
 facet normal 0 1 -0
  outer loop
   vertex 1100 0 0
   vertex 0 0 300
   vertex 1100 0 300
  endloop
 endfacet
endsolid groundAndWall
solid nozzel
 facet normal 0 -1 0
  outer loop
   vertex -30 20 0
   vertex 30 20 0
   vertex 30 20 300
  endloop
 endfacet
 facet normal 0 -1 0
  outer loop
   vertex -30 20 300
   vertex -30 20 0
   vertex 30 20 300
  endloop
 endfacet
endsolid nozzel
solid inlet
 facet normal -1 -0 0
  outer loop
   vertex 30 20 300
   vertex 30 -100 0
   vertex 30 -100 300
  endloop
 endfacet
 facet normal -1 0 -0
  outer loop
   vertex 30 20 300
   vertex 30 20 0
   vertex 30 -100 0
  endloop
 endfacet
endsolid inlet
